<svg width="26" height="26" viewBox="0 0 26 26" fill="none" xmlns="http://www.w3.org/2000/svg">
<g clip-path="url(#clip0_6_10)">
<path fill-rule="evenodd" clip-rule="evenodd" d="M4.99976 5.00003V3.22269C4.99976 1.99467 5.99443 1 7.22244 1H22.7786C24.0052 1 24.9999 1.99467 24.9999 3.22269V18.7788C24.9999 20.0055 24.0052 21.0002 22.7772 21.0002H20.9999" fill="#2C1B6A"/>
<path d="M4.99976 5.00003V3.22269C4.99976 1.99468 5.99443 1 7.22244 1H22.7786C24.0052 1 24.9999 1.99468 24.9999 3.22269V18.7788C24.9999 20.0055 24.0052 21.0002 22.7772 21.0002H20.9999" stroke="#2C1B6A" stroke-width="1.5" stroke-linecap="round" stroke-linejoin="round"/>
<path fill-rule="evenodd" clip-rule="evenodd" d="M18.7775 25.0001H3.22269C1.99467 25.0001 1 24.0054 1 22.7774V7.22256C1 5.99455 1.99467 4.99988 3.22269 4.99988H18.7788C20.0055 4.99988 21.0002 5.99455 21.0002 7.22256V22.7787C21.0002 24.0054 20.0055 25.0001 18.7775 25.0001Z" fill="#653DF5" stroke="#653DF5" stroke-width="1.5" stroke-linecap="round" stroke-linejoin="round"/>
<path fill-rule="evenodd" clip-rule="evenodd" d="M15.3325 21.6633H6.66932C6.30128 21.6633 6.00293 21.365 6.00293 20.997V20.4558C6.00732 18.9163 7.25426 17.6694 8.79379 17.665H13.208C14.7475 17.6694 15.9945 18.9163 15.9988 20.4558V20.997C15.9988 21.365 15.7005 21.6633 15.3325 21.6633Z" fill="white" stroke="white" stroke-width="1.5" stroke-linecap="round" stroke-linejoin="round"/>
<path fill-rule="evenodd" clip-rule="evenodd" d="M11.0008 14.3326C9.53 14.3326 8.33716 13.1414 8.33521 11.6706C8.33326 10.1998 9.52292 9.0054 10.9937 9.00147C12.4644 8.99757 13.6605 10.1856 13.6664 11.6564C13.6692 12.3652 13.3896 13.0459 12.8894 13.5481C12.3892 14.0503 11.7096 14.3326 11.0008 14.3326Z" fill="white" stroke="white" stroke-width="1.5" stroke-linecap="round" stroke-linejoin="round"/>
</g>
<defs>
<clipPath id="clip0_6_10">
<rect width="26" height="26" fill="white"/>
</clipPath>
</defs>
</svg>
